PathFileType	3	(X/Y/Z)	squats_1__view1_aligned.trc
DataRate	CameraRate	NumFrames	NumMarkers	Units	OrigDataRate	OrigDataStartFrame	OrigNumFrames
100.0	100.0	15	19	mm	100.0	758	1660
Frame#	Time	pelvis			neck			head			hip_left			hip_right			knee_left			knee_right			ankle_left			ankle_right			heel_left			heel_right			toe_left			toe_right			shoulder_left			shoulder_right			elbow_left			elbow_right			wrist_left			wrist_right			
		X1	Y1	Z1	X2	Y2	Z2	X3	Y3	Z3	X4	Y4	Z4	X5	Y5	Z5	X6	Y6	Z6	X7	Y7	Z7	X8	Y8	Z8	X9	Y9	Z9	X10	Y10	Z10	X11	Y11	Z11	X12	Y12	Z12	X13	Y13	Z13	X14	Y14	Z14	X15	Y15	Z15	X16	Y16	Z16	X17	Y17	Z17	X18	Y18	Z18	X19	Y19	Z19	
758	7.57000	25.560700	949.413973	79.068038	33.289624	1541.087086	36.688497	37.595755	1689.577561	-75.729222	-50.758056	954.091087	82.944184	101.879456	944.736859	75.191891	-108.458183	520.585268	64.500687	166.596575	517.335422	13.041000	-145.963258	125.304751	164.939702	214.143269	118.447398	90.996149	-141.221585	77.897046	202.284712	216.906643	75.493161	132.607967	-183.524904	68.337993	-22.168865	222.192451	27.553831	-89.736878	-149.437364	1470.149641	86.856403	217.696575	1480.724919	72.284365	-248.952281	1189.972810	118.885156	308.272939	1192.452861	65.527134	-249.446447	1075.527500	-123.503100	354.946267	1082.043680	-172.880414
759	7.58000	27.336304	949.229525	77.749919	34.718518	1540.806184	33.768864	38.989362	1688.947383	-79.073006	-48.976829	953.919600	81.643522	103.649437	944.539451	73.856316	-106.729569	520.510102	62.066214	168.423453	517.356969	10.378918	-143.878190	125.483540	162.891155	216.092303	118.712595	88.547699	-139.085895	78.115264	200.265819	218.873194	75.798374	130.181051	-181.416962	68.389966	-24.169514	224.332862	27.821970	-92.155572	-148.012315	1469.810428	83.950259	219.153638	1480.678282	69.470022	-247.270917	1189.516873	115.614935	310.093094	1192.575851	62.752855	-247.845318	1076.046054	-127.097677	356.361416	1082.290136	-175.606912
760	7.59000	29.111908	949.045078	76.431800	36.147412	1540.525282	30.849232	40.382970	1688.317204	-82.416790	-47.195602	953.748113	80.342860	105.419418	944.342042	72.520740	-105.000955	520.434935	59.631740	170.250331	517.378517	7.716837	-141.793123	125.662330	160.842609	218.041337	118.977793	86.099250	-136.950205	78.333481	198.246926	220.839745	76.103588	127.754135	-179.309020	68.441939	-26.170162	226.473272	28.090108	-94.574266	-146.587266	1469.471215	81.044114	220.610701	1480.631645	66.655679	-245.589553	1189.060937	112.344714	311.913249	1192.698840	59.978576	-246.244188	1076.564608	-130.692253	357.776565	1082.536591	-178.333410
761	7.60000	30.887512	948.860630	75.113681	37.576306	1540.244379	27.929600	41.776578	1687.687026	-85.760574	-45.414375	953.576626	79.042198	107.189399	944.144634	71.185164	-103.272341	520.359768	57.197267	172.077209	517.400065	5.054756	-139.708055	125.841119	158.794062	219.990371	119.242990	83.650801	-134.814515	78.551699	196.228033	222.806297	76.408802	125.327218	-177.201078	68.493912	-28.170810	228.613682	28.358247	-96.992960	-145.162218	1469.132002	78.137970	222.067764	1480.585008	63.841337	-243.908190	1188.605000	109.074493	313.733404	1192.821830	57.204297	-244.643059	1077.083162	-134.286829	359.191714	1082.783047	-181.059908
762	7.61000	32.663116	948.676182	73.795562	39.005200	1539.963477	25.009967	43.170186	1687.056848	-89.104358	-43.633148	953.405139	77.741535	108.959380	943.947225	69.849588	-101.543727	520.284602	54.762793	173.904087	517.421613	2.392674	-137.622988	126.019908	156.745515	221.939404	119.508188	81.202352	-132.678826	78.769917	194.209140	224.772848	76.714015	122.900302	-175.093137	68.545885	-30.171458	230.754093	28.626386	-99.411653	-143.737169	1468.792789	75.231825	223.524828	1480.538371	61.026994	-242.226826	1188.149064	105.804271	315.553559	1192.944819	54.430018	-243.041930	1077.601716	-137.881406	360.606863	1083.029503	-183.786406
763	7.62000	34.438720	948.491734	72.477443	40.434093	1539.682575	22.090335	44.563793	1686.426670	-92.448143	-41.851921	953.233652	76.440873	110.729361	943.749817	68.514012	-99.815114	520.209435	52.328320	175.730965	517.443161	-0.269407	-135.537920	126.198698	154.696968	223.888438	119.773386	78.753903	-130.543136	78.988135	192.190247	226.739399	77.019229	120.473386	-172.985195	68.597858	-32.172106	232.894503	28.894525	-101.830347	-142.312120	1468.453576	72.325681	224.981891	1480.491733	58.212651	-240.545462	1187.693127	102.534050	317.373715	1193.067808	51.655739	-241.440800	1078.120270	-141.475982	362.022012	1083.275958	-186.512904
764	7.63000	36.214324	948.307286	71.159324	41.862987	1539.401673	19.170703	45.957401	1685.796491	-95.791927	-40.070694	953.062165	75.140211	112.499342	943.552408	67.178436	-98.086500	520.134269	49.893846	177.557843	517.464708	-2.931488	-133.452853	126.377487	152.648422	225.837472	120.038583	76.305454	-128.407446	79.206352	190.171354	228.705950	77.324442	118.046469	-170.877253	68.649831	-34.172754	235.034913	29.162663	-104.249041	-140.887072	1468.114363	69.419536	226.438954	1480.445096	55.398308	-238.864099	1187.237190	99.263829	319.193870	1193.190798	48.881460	-239.839671	1078.638824	-145.070559	363.437161	1083.522414	-189.239402
765	7.64000	37.989928	948.122839	69.841204	43.291881	1539.120771	16.251070	47.351009	1685.166313	-99.135711	-38.289467	952.890678	73.839549	114.269323	943.355000	65.842860	-96.357886	520.059102	47.459373	179.384720	517.486256	-5.593570	-131.367785	126.556276	150.599875	227.786506	120.303781	73.857005	-126.271756	79.424570	188.152461	230.672501	77.629656	115.619553	-168.769311	68.701804	-36.173402	237.175324	29.430802	-106.667735	-139.462023	1467.775150	66.513392	227.896017	1480.398459	52.583966	-237.182735	1186.781254	95.993608	321.014025	1193.313787	46.107181	-238.238541	1079.157378	-148.665135	364.852310	1083.768870	-191.965900
766	7.65000	39.765532	947.938391	68.523085	44.720775	1538.839869	13.331438	48.744617	1684.536135	-102.479495	-36.508240	952.719191	72.538887	116.039304	943.157591	64.507284	-94.629272	519.983936	45.024900	181.211598	517.507804	-8.255651	-129.282718	126.735066	148.551328	229.735540	120.568978	71.408555	-124.136067	79.642788	186.133568	232.639053	77.934870	113.192637	-166.661369	68.753776	-38.174050	239.315734	29.698941	-109.086429	-138.036975	1467.435937	63.607247	229.353080	1480.351822	49.769623	-235.501371	1186.325317	92.723386	322.834180	1193.436777	43.332902	-236.637412	1079.675933	-152.259711	366.267459	1084.015326	-194.692398
767	7.66000	41.676980	947.464197	68.251602	46.259840	1537.723414	9.964107	50.260409	1682.699561	-106.520829	-34.629556	952.235288	72.251533	117.983497	942.693106	64.251685	-92.900182	519.998387	41.990777	182.843971	517.464387	-10.731503	-127.263953	127.133810	146.445068	231.221125	120.781764	69.628091	-122.097265	80.100247	184.096999	234.178216	78.195664	111.451223	-164.814804	69.079322	-40.178731	240.443093	29.875572	-110.786466	-136.661774	1466.371639	60.065998	231.015810	1479.494643	46.785366	-234.127812	1185.466793	89.704348	324.322278	1192.662599	40.975738	-234.186383	1078.567912	-154.836055	367.369532	1083.158004	-196.893236
768	7.67000	43.588428	946.990004	67.980118	47.798905	1536.606959	6.596777	51.776202	1680.862988	-110.562164	-32.750872	951.751386	71.964180	119.927690	942.228622	63.996087	-91.171093	520.012839	38.956654	184.476344	517.420969	-13.207355	-125.245188	127.532554	144.338807	232.706711	120.994550	67.847626	-120.058464	80.557707	182.060430	235.717379	78.456459	109.709809	-162.968238	69.404867	-42.183412	241.570452	30.052203	-112.486503	-135.286573	1465.307340	56.524749	232.678540	1478.637464	43.801109	-232.754252	1184.608268	86.685310	325.810376	1191.888421	38.618573	-231.735355	1077.459891	-157.412398	368.471605	1082.300683	-199.094074
769	7.68000	45.499876	946.515810	67.708634	49.337970	1535.490505	3.229446	53.291994	1679.026415	-114.603498	-30.872188	951.267484	71.676826	121.871884	941.764137	63.740488	-89.442003	520.027291	35.922531	186.108717	517.377552	-15.683207	-123.226423	127.931298	142.232547	234.192296	121.207336	66.067161	-118.019662	81.015166	180.023861	237.256543	78.717254	107.968395	-161.121673	69.730412	-44.188093	242.697810	30.228835	-114.186540	-133.911372	1464.243041	52.983500	234.341270	1477.780286	40.816853	-231.380693	1183.749744	83.666272	327.298474	1191.114243	36.261409	-229.284326	1076.351870	-159.988742	369.573677	1081.443362	-201.294912
770	7.69000	47.411325	946.041616	67.437150	50.877035	1534.374050	-0.137885	54.807787	1677.189841	-118.644833	-28.993504	950.783582	71.389473	123.816077	941.299652	63.484889	-87.712913	520.041742	32.888408	187.741090	517.334135	-18.159058	-121.207658	128.330043	140.126286	235.677881	121.420122	64.286696	-115.980861	81.472625	177.987292	238.795706	78.978048	106.226982	-159.275107	70.055958	-46.192774	243.825169	30.405466	-115.886577	-132.536171	1463.178743	49.442251	236.004000	1476.923107	37.832596	-230.007133	1182.891219	80.647234	328.786572	1190.340065	33.904245	-226.833298	1075.243849	-162.565085	370.675750	1080.586041	-203.495750
771	7.70000	49.322773	945.567423	67.165666	52.416100	1533.257595	-3.505216	56.323579	1675.353268	-122.686168	-27.114820	950.299680	71.102119	125.760270	940.835167	63.229291	-85.983824	520.056194	29.854285	189.373463	517.290718	-20.634910	-119.188893	128.728787	138.020026	237.163467	121.632907	62.506231	-113.942060	81.930085	175.950723	240.334869	79.238843	104.485568	-157.428542	70.381503	-48.197455	244.952528	30.582097	-117.586614	-131.160970	1462.114444	45.901002	237.666730	1476.065928	34.848339	-228.633574	1182.032694	77.628196	330.274671	1189.565887	31.547080	-224.382270	1074.135829	-165.141429	371.777823	1079.728719	-205.696588
772	7.71000	51.234221	945.093229	66.894182	53.955165	1532.141140	-6.872546	57.839372	1673.516695	-126.727502	-25.236137	949.815778	70.814766	127.704464	940.370682	62.973692	-84.254734	520.070646	26.820162	191.005836	517.247300	-23.110762	-117.170128	129.127531	135.913765	238.649052	121.845693	60.725766	-111.903258	82.387544	173.914154	241.874033	79.499638	102.744154	-155.581976	70.707048	-50.202136	246.079887	30.758728	-119.286651	-129.785769	1461.050145	42.359753	239.329461	1475.208749	31.864082	-227.260014	1181.174170	74.609158	331.762769	1188.791709	29.189916	-221.931241	1073.027808	-167.717773	372.879895	1078.871398	-207.897425
